<svg width="175" height="100" viewBox="0 0 175 100" fill="none" xmlns="http://www.w3.org/2000/svg">
<g clip-path="url(#clip0_81_18)">
<path d="M0 20C0 8.9543 8.95431 0 20 0H155C166.046 0 175 8.95431 175 20V100H0V20Z" fill="url(#paint0_linear_81_18)"/>
</g>
<path d="M62.731 70.7961C63.1988 70.9851 63.7251 71.1111 64.2514 71.1111C65.0701 71.1111 65.8889 70.7961 66.5907 70.292L95.538 53.343L95.8304 53.028C96.5907 52.2089 97 51.2008 97 50.0667C97 48.9326 96.5907 47.8615 95.8304 47.1054L95.538 46.7904L66.5907 29.7154C65.538 28.8332 64.0176 28.6443 62.731 29.2113C61.269 29.8414 60.3333 31.4166 60.3333 33.1177V66.8896C60.3333 68.5908 61.269 70.166 62.731 70.7961Z" stroke="white" stroke-width="2" stroke-linecap="round" stroke-linejoin="round"/>
<path d="M113.667 28.8889V71.1111" stroke="white" stroke-width="2" stroke-linecap="round" stroke-linejoin="round"/>
<path d="M104.778 28.8889V71.1111" stroke="white" stroke-width="2" stroke-linecap="round" stroke-linejoin="round"/>
<defs>
<linearGradient id="paint0_linear_81_18" x1="87.5" y1="0" x2="87.5" y2="100" gradientUnits="userSpaceOnUse">
<stop stop-color="#5D0096"/>
<stop offset="1" stop-color="#230085"/>
</linearGradient>
<clipPath id="clip0_81_18">
<rect width="175" height="100" fill="white"/>
</clipPath>
</defs>
</svg>
