<svg width="175" height="100" viewBox="0 0 175 100" fill="none" xmlns="http://www.w3.org/2000/svg">
<g clip-path="url(#clip0_80_17)">
<path d="M0 20C0 8.9543 8.95431 0 20 0H155C166.046 0 175 8.95431 175 20V100H0V20Z" fill="url(#paint0_linear_80_17)"/>
</g>
<path d="M85.4563 38.6955C86.4505 39.5829 87.3437 40.6058 88.1065 41.7531C88.2458 41.9627 88.3796 42.1746 88.5079 42.3888L94.1444 42.2902L95.7961 52.0384L90.4261 53.8072C90.1027 55.3528 89.5473 56.8585 88.7621 58.2695L91.6779 63.1218L84.0615 69.4263L79.8273 65.6446C78.3242 66.1374 76.7496 66.4055 75.1572 66.4341L72.404 71.4015L63.1359 67.9578L64.294 62.3993C63.1056 61.3375 62.0874 60.1058 61.2701 58.7503L55.5965 58.8496L53.9448 49.1014L59.3177 47.3317C59.6445 45.7485 60.2076 44.2437 60.973 42.8605L58.063 38.018L65.6794 31.7135L69.882 35.467C70.1186 35.3888 70.3578 35.3158 70.5997 35.2482C71.9279 34.8769 73.2738 34.6855 74.6076 34.6628L77.337 29.7383L86.6051 33.182L85.4563 38.6955Z" stroke="#C2CCDE" stroke-width="2" stroke-linecap="round" stroke-linejoin="round"/>
<path d="M73.3686 45.797C75.3532 45.2423 77.4694 46.0286 78.6103 47.7447C79.7512 49.4608 79.6573 51.7163 78.3777 53.3317C77.0982 54.947 74.924 55.5548 72.9923 54.837C71.0606 54.1193 69.8108 52.2393 69.8965 50.1803C69.9822 48.1214 71.3839 46.3518 73.3686 45.797Z" stroke="#C2CCDE" stroke-width="2" stroke-linecap="round" stroke-linejoin="round"/>
<path d="M91.5349 32.6118C91.4652 32.3563 91.408 32.0959 91.3641 31.8313C91.3201 31.5661 91.2901 31.3004 91.2736 31.0355L88.2205 29.0872L89.9398 24.5079L93.5217 25.0507C93.708 24.8627 93.9049 24.683 94.112 24.5128C94.3194 24.3423 94.534 24.1837 94.7549 24.0372L94.9156 20.4178L99.7411 19.6172L101.062 22.9907C101.318 23.0581 101.573 23.1389 101.824 23.2333C102.075 23.3275 102.319 23.4339 102.556 23.5517L105.771 21.8813L108.877 25.6599L106.617 28.4898C106.687 28.7459 106.744 29.007 106.788 29.2723C106.832 29.5368 106.862 29.8017 106.879 30.066L109.932 32.0142L108.212 36.5934L104.632 36.051C104.446 36.2397 104.248 36.42 104.04 36.5908C103.833 36.7614 103.618 36.9201 103.397 37.0667L103.236 40.6836L98.4109 41.4842L97.0908 38.113C96.8343 38.0456 96.5798 37.9648 96.3282 37.8704C96.0764 37.7758 95.8313 37.669 95.5935 37.5507L92.3808 39.2201L89.2747 35.4414L91.5349 32.6118Z" stroke="#C2CCDE" stroke-width="2" stroke-linecap="round" stroke-linejoin="round"/>
<path d="M96.7987 27.923C97.7324 27.1555 99.0046 26.9444 100.136 27.3692C101.268 27.7941 102.086 28.7903 102.284 29.9826C102.482 31.175 102.029 32.3823 101.095 33.1497C100.161 33.9172 98.8893 34.1283 97.7578 33.7035C96.6263 33.2786 95.8074 32.2824 95.6095 31.0901C95.4117 29.8978 95.865 28.6905 96.7987 27.923Z" stroke="#C2CCDE" stroke-width="2" stroke-linecap="round" stroke-linejoin="round"/>
<path d="M96.7869 65.3981C96.7237 64.9509 96.6871 64.4978 96.6781 64.0408C96.6691 63.582 96.688 63.1259 96.734 62.6748L93.7073 60.543L96.1614 55.1796L99.755 56.0766C100.065 55.7484 100.397 55.4371 100.749 55.1451C101.101 54.8526 101.468 54.5837 101.849 54.3388L101.628 50.6411L107.352 49.2158L108.891 52.5849C109.342 52.6228 109.793 52.6879 110.241 52.7811C110.689 52.874 111.128 52.9934 111.555 53.1378L114.309 50.6603L118.991 54.2464L117.318 57.5484C117.57 57.9253 117.801 58.3193 118.008 58.7289C118.215 59.1368 118.395 59.5542 118.549 59.9788L122.2 60.5861L122.316 66.4831L118.694 67.2331C118.556 67.6656 118.392 68.092 118.201 68.5097C118.01 68.9262 117.796 69.328 117.559 69.7136L119.359 72.9441L114.821 76.7115L111.978 74.3484C111.554 74.5103 111.119 74.6475 110.674 74.7584C110.228 74.8693 109.779 74.9523 109.329 75.0078L107.926 78.4286L102.151 77.2294L102.226 73.5318C101.837 73.3022 101.459 73.0479 101.095 72.7696C100.73 72.4903 100.385 72.1907 100.061 71.8732L96.5102 72.9095L93.847 67.6468L96.7869 65.3981Z" stroke="#C2CCDE" stroke-width="2" stroke-linecap="round" stroke-linejoin="round"/>
<path d="M104.073 59.3552C105.429 58.2293 107.224 57.7822 108.95 58.1406C110.676 58.4989 112.145 59.6237 112.941 61.1966C113.737 62.7694 113.773 64.6191 113.04 66.222C112.306 67.8249 110.883 69.0066 109.173 69.4326C107.462 69.8586 105.651 69.4825 104.251 68.4107C102.852 67.339 102.016 65.6883 101.982 63.9259C101.947 62.1635 102.717 60.4812 104.073 59.3552Z" stroke="#C2CCDE" stroke-width="2" stroke-linecap="round" stroke-linejoin="round"/>
<defs>
<linearGradient id="paint0_linear_80_17" x1="87.5" y1="0" x2="87.5" y2="100" gradientUnits="userSpaceOnUse">
<stop stop-color="#1F2021"/>
<stop offset="1" stop-color="#323232"/>
</linearGradient>
<clipPath id="clip0_80_17">
<rect width="175" height="100" fill="white"/>
</clipPath>
</defs>
</svg>
